<?xml version="1.0" encoding="iso-8859-1"?>
<!-- Uploaded to: SVG Repo, www.svgrepo.com, Generator: SVG Repo Mixer Tools -->
<svg height="800px" width="800px" version="1.1" id="Layer_1" xmlns="http://www.w3.org/2000/svg" xmlns:xlink="http://www.w3.org/1999/xlink" 
	 viewBox="0 0 512 512" xml:space="preserve">
<g>
	<path style="fill:#4C1B27;" d="M314.734,397.244c-6.099,0-11.821-3.769-14.017-9.834l-25.843-71.314
		c-2.806-7.741,1.196-16.291,8.936-19.097c7.744-2.804,16.292,1.197,19.097,8.938l25.843,71.314
		c2.806,7.741-1.196,16.291-8.936,19.097C318.135,396.954,316.42,397.244,314.734,397.244z"/>
	<path style="fill:#4C1B27;" d="M195.457,397.244c-1.843,0-3.715-0.343-5.53-1.069c-7.647-3.056-11.367-11.733-8.309-19.379
		l28.51-71.314c3.058-7.647,11.736-11.365,19.377-8.309c7.647,3.056,11.367,11.733,8.309,19.379l-28.51,71.314
		C206.973,393.695,201.375,397.244,195.457,397.244z"/>
	<path style="fill:#4C1B27;" d="M389.143,512H122.859c-25.807,0-46.803-20.996-46.803-46.803c0-25.807,20.996-46.803,46.803-46.803
		h266.283c25.807,0,46.803,20.996,46.803,46.803C435.945,491.004,414.949,512,389.143,512z M122.859,448.212
		c-9.366,0-16.986,7.62-16.986,16.986s7.618,16.986,16.986,16.986h266.283c9.366,0,16.986-7.62,16.986-16.986
		s-7.618-16.986-16.986-16.986H122.859z"/>
	<path style="fill:#4C1B27;" d="M284.802,203.427c-2.611,0-5.254-0.686-7.656-2.128c-7.061-4.236-9.349-13.394-5.115-20.455
		l98.908-164.846c4.236-7.061,13.394-9.352,20.455-5.114c7.061,4.236,9.349,13.394,5.115,20.455l-98.908,164.846
		C294.806,200.845,289.866,203.427,284.802,203.427z"/>
	<path style="fill:#4C1B27;" d="M218.891,137.488c-5.065,0-10.004-2.581-12.799-7.24c-4.236-7.061-1.947-16.218,5.115-20.455
		l164.847-98.908c7.056-4.239,16.218-1.947,20.455,5.114c4.236,7.061,1.947,16.218-5.115,20.455l-164.847,98.908
		C224.145,136.802,221.502,137.488,218.891,137.488z"/>
	<path style="fill:#4C1B27;" d="M391.965,189.811c-8.233,0-14.909-6.675-14.909-14.909V32.531c0-1.211-0.984-2.196-2.196-2.196
		H150.735c-8.233,0-14.909-6.675-14.909-14.909s6.676-14.909,14.909-14.909h224.126c17.652,0,32.014,14.362,32.014,32.014v142.372
		C406.874,183.136,400.199,189.811,391.965,189.811z"/>
</g>
<path style="fill:#D46366;" d="M157.993,19.048c-6.306-6.306-16.813-5.266-21.758,2.157
	C88.983,92.147,96.643,188.85,159.227,251.433s159.286,70.245,230.229,22.992c7.423-4.944,8.464-15.452,2.157-21.758L157.993,19.048
	z"/>
<path style="fill:#4C1B27;" d="M288.356,319.829C288.353,319.829,288.356,319.829,288.356,319.829
	c-52.764,0-102.366-20.547-139.672-57.854C82.351,195.641,71.896,90.907,123.826,12.941C129.225,4.838,138.265,0,148.011,0
	c7.75,0,15.039,3.021,20.524,8.506l233.62,233.62c6.178,6.178,9.226,14.709,8.364,23.405c-0.863,8.696-5.528,16.461-12.801,21.303
	C365.314,308.418,327.493,319.829,288.356,319.829z M148.12,30.261c-43.488,66.097-34.45,154.53,21.649,210.631
	c31.674,31.675,73.788,49.119,118.585,49.12c32.919,0,64.725-9.497,92.044-27.471L148.12,30.261z"/>
</svg>