<?xml version="1.0" encoding="iso-8859-1"?>
<!-- Uploaded to: SVG Repo, www.svgrepo.com, Generator: SVG Repo Mixer Tools -->
<svg height="800px" width="800px" version="1.1" id="Layer_1" xmlns="http://www.w3.org/2000/svg" xmlns:xlink="http://www.w3.org/1999/xlink" 
	 viewBox="0 0 508.4 508.4" xml:space="preserve">
<path style="fill:#CDEEF9;" d="M132.8,142.8c0-2.4,1.2-5.2,2.8-6.8c2.4-2.4,6-3.2,9.2-2.4L230.4,48c-23.6-25.6-57.2-41.6-94.8-41.6
	C64.4,6.4,6.4,64.4,6.4,135.6c0,37.6,16,71.2,41.6,94.8l85.2-85.2C132.8,144.4,132.8,143.6,132.8,142.8z"/>
<path style="fill:#ACD9EA;" d="M149.2,136l60.8,60.8l53.6-53.6c0.4-0.4,0.4-0.4,0.8-0.4c0-2.4,0.4-4.8,0.4-7.2
	c0-32.4-12-61.6-31.6-84.4l-84.4,84.4C148.8,135.6,149.2,135.6,149.2,136z"/>
<path style="fill:#7D8B95;" d="M233.2,219.6c17.6-20,28-45.2,30.8-71.2l-51.2,51.2L233.2,219.6z"/>
<path style="fill:#ACD9EA;" d="M144,262.4l52-52l-60.8-60.8c-0.4-0.4-0.4-0.4-0.4-0.8l-84,84c22.8,19.6,52,31.6,84.4,31.6
	c2.8,0,5.6,0,8-0.4C143.6,263.6,143.6,262.8,144,262.4z"/>
<path style="fill:#7D8B95;" d="M148.4,263.6c26-2.8,50.8-13.2,70.8-30.4l-20.4-20.4L148.4,263.6z"/>
<g>
	<path style="fill:#E8E3E3;" d="M236.4,48.8l256,256c2,2,6,2,8,0c1.2-1.2,1.6-2.4,1.6-4s-0.4-2.8-1.6-4l-256-256
		c-1.2-1.2-2.4-1.6-4-1.6s-2.8,0.4-4,1.6s-1.6,2.4-1.6,4S235.2,48,236.4,48.8z"/>
	<path style="fill:#E8E3E3;" d="M44.8,234.8c-1.6,0-2.8,0.4-4,1.6s-1.6,2.4-1.6,4s0.4,2.8,1.6,4l256,256c2,2,6,2,8,0
		c1.2-1.2,1.6-2.4,1.6-4s-0.4-2.8-1.6-4l-256-256C47.6,235.6,46.4,234.8,44.8,234.8z"/>
	<path style="fill:#E8E3E3;" d="M394.8,403.2c2,2,6,2,8,0c1.2-1.2,1.6-2.4,1.6-4s-0.4-2.8-1.6-4L232,224.4l-8,8L394.8,403.2z"/>
	<path style="fill:#E8E3E3;" d="M142.4,137.2c-1.6,0-2.8,0.4-4,1.6s-1.6,2.4-1.6,4s0.4,2.8,1.6,4l85.2,85.2l8-8l-85.2-85.2
		C145.6,137.6,144,137.2,142.4,137.2z"/>
</g>
<path d="M135.6,270.4C61.2,270.4,0.4,210,0.4,135.2C0.4,60.8,60.8,0,135.6,0C210,0,270.8,60.4,270.8,135.2c0,33.2-12,65.2-34.4,90
	c-1.6,1.6-4,1.6-5.6,0.4c-1.6-1.6-1.6-4-0.4-5.6c20.8-23.2,32.4-53.2,32.4-84.4c0-70-56.8-127.2-127.2-127.2
	C65.6,8.4,8.4,65.2,8.4,135.6c0,70,56.8,127.2,127.2,127.2c31.2,0,60.8-11.2,84-32c1.6-1.6,4-1.2,5.6,0.4s1.2,4-0.4,5.6
	C200.4,258.4,168.4,270.4,135.6,270.4z"/>
<path d="M496.4,312.8c-3.2,0-6-1.2-8.4-3.6l-256-256c-4.4-4.4-4.4-12,0-16.4s12-4.4,16.4,0l256,256c2.4,2.4,3.6,5.2,3.6,8.4
	c0,3.2-1.2,6-3.6,8.4C502.8,311.6,499.6,312.8,496.4,312.8z M240.4,41.2c-0.8,0-2,0.4-2.8,1.2c-1.6,1.6-1.6,4,0,5.2l256,256
	c1.6,1.6,4,1.6,5.2,0c0.8-0.8,1.2-1.6,1.2-2.8s-0.4-2-1.2-2.8l-256-256C242.4,41.6,241.2,41.2,240.4,41.2z"/>
<path d="M300.8,508.4c-3.2,0-6-1.2-8.4-3.6l-256-256c-2.4-2.4-3.6-5.2-3.6-8.4c0-3.2,1.2-6,3.6-8.4c2.4-2.4,5.2-3.6,8.4-3.6l0,0
	c3.2,0,6,1.2,8.4,3.6l256,256c2.4,2.4,3.6,5.2,3.6,8.4s-1.2,6-3.6,8.4C306.8,507.2,304,508.4,300.8,508.4z M44.8,236.8
	c-0.8,0-2,0.4-2.8,1.2c-0.8,0.8-1.2,1.6-1.2,2.8s0.4,2,1.2,2.8l256,256c1.6,1.6,4,1.6,5.2,0c0.8-0.8,1.2-1.6,1.2-2.8s-0.4-2-1.2-2.8
	l-256-256C46.8,237.2,45.6,236.8,44.8,236.8L44.8,236.8z"/>
<path d="M398.8,410.8c-3.2,0-6-1.2-8.4-3.6l-256-256c-2.4-2.4-3.6-5.2-3.6-8.4c0-3.2,1.2-6,3.6-8.4c2.4-2.4,5.2-3.6,8.4-3.6l0,0
	c3.2,0,6,1.2,8.4,3.6l256,256c2.4,2.4,3.6,5.2,3.6,8.4s-1.2,6-3.6,8.4C404.8,409.6,401.6,410.8,398.8,410.8z M142.4,139.2
	c-0.8,0-2,0.4-2.8,1.2c-0.8,0.8-1.2,1.6-1.2,2.8c0,0.8,0.4,2,1.2,2.8l256,256c1.6,1.6,4,1.6,5.2,0c0.8-0.8,1.2-1.6,1.2-2.8
	c0-0.8-0.4-2-1.2-2.8l-256-256C144.4,139.6,143.6,139.2,142.4,139.2L142.4,139.2z"/>
<path d="M145.6,139.6c-1.2,0-2-0.4-2.8-1.2c-1.6-1.6-1.6-4,0-5.6l87.6-87.6c1.6-1.6,4-1.6,5.6,0s1.6,4,0,5.6l-87.6,87.6
	C147.6,139.2,146.4,139.6,145.6,139.6z"/>
<path d="M48.4,236.8c-1.2,0-2-0.4-2.8-1.2c-1.6-1.6-1.6-4,0-5.6l87.2-87.2c1.6-1.6,4-1.6,5.6,0s1.6,4,0,5.6l-87.2,87.2
	C50.4,236.4,49.2,236.8,48.4,236.8z"/>
<path d="M145.6,267.6c-1.2,0-2-0.4-2.8-1.2c-1.6-1.6-1.6-4,0-5.6l52.4-52.4c1.6-1.6,4-1.6,5.6,0s1.6,4,0,5.6l-52.4,52.4
	C147.6,267.6,146.4,267.6,145.6,267.6z"/>
<path d="M211.2,202.4c-1.2,0-2-0.4-2.8-1.2c-1.6-1.6-1.6-4,0-5.6l54-54c1.6-1.6,4-1.6,5.6,0s1.6,4,0,5.6l-54,54
	C213.2,202,212,202.4,211.2,202.4z"/>
</svg>