<?xml version="1.0" encoding="iso-8859-1"?>
<!-- Uploaded to: SVG Repo, www.svgrepo.com, Generator: SVG Repo Mixer Tools -->
<svg height="800px" width="800px" version="1.1" id="Layer_1" xmlns="http://www.w3.org/2000/svg" xmlns:xlink="http://www.w3.org/1999/xlink" 
	 viewBox="0 0 512 512" xml:space="preserve">
<g>
	<path style="fill:#4C1B27;" d="M278.913,399.115h-45.544c-8.385,0-15.181-6.797-15.181-15.181s6.797-15.181,15.181-15.181h45.544
		c8.383,0,15.181,6.797,15.181,15.181C294.094,392.319,287.298,399.115,278.913,399.115z"/>
	<path style="fill:#4C1B27;" d="M255.572,508.574c-8.385,0-15.181-6.797-15.181-15.181V240.818c0-8.385,6.797-15.181,15.181-15.181
		c8.385,0,15.181,6.797,15.181,15.181v252.575C270.752,501.778,263.956,508.574,255.572,508.574z"/>
	<path style="fill:#4C1B27;" d="M71.753,494.264c-3.745,0-7.497-1.377-10.433-4.154c-6.089-5.763-6.355-15.371-0.592-21.462
		l183.817-194.25c5.763-6.091,15.371-6.356,21.462-0.594c6.091,5.763,6.355,15.371,0.592,21.462L82.782,489.517
		C79.796,492.672,75.778,494.264,71.753,494.264z"/>
	<path style="fill:#4C1B27;" d="M439.391,494.264c-4.026,0-8.045-1.591-11.031-4.746L244.544,295.266
		c-5.763-6.091-5.497-15.699,0.592-21.462c6.092-5.763,15.699-5.496,21.462,0.594l183.817,194.25
		c5.763,6.091,5.497,15.699-0.594,21.462C446.889,492.886,443.136,494.264,439.391,494.264z"/>
</g>
<path style="fill:#D46366;" d="M89.675,258.873l-34.191,9.494c-5.79,1.608-11.787-1.782-13.396-7.572l-26.508-95.46
	c-1.608-5.79,1.782-11.787,7.572-13.396l34.191-9.494c5.79-1.608,11.787,1.782,13.396,7.572l26.508,95.46
	C98.856,251.267,95.465,257.265,89.675,258.873z"/>
<g>
	<path style="fill:#4C1B27;" d="M52.567,283.948c-11.661,0-21.984-7.85-25.107-19.092L0.953,169.397
		c-3.845-13.847,4.292-28.24,18.139-32.086l34.191-9.494c2.277-0.633,4.626-0.953,6.979-0.953c11.661,0,21.984,7.85,25.105,19.092
		l26.508,95.459c1.863,6.707,1.002,13.739-2.424,19.8c-3.426,6.06-9.007,10.423-15.714,12.286l-34.19,9.494
		C57.27,283.626,54.921,283.948,52.567,283.948z M31.36,165.417l24.207,87.171l25.904-7.193l-24.207-87.171L31.36,165.417z"/>
	<path style="fill:#4C1B27;" d="M92.032,273.974L51.578,128.291L444.672,19.134l40.452,145.683l-123.396,34.264
		c-8.079,2.244-16.446-2.487-18.691-10.565c-2.244-8.08,2.488-16.446,10.566-18.69l94.143-26.142L423.54,56.513l-334.582,92.91
		l24.207,87.171l40.712-11.306c8.087-2.241,16.447,2.488,18.69,10.565c2.244,8.078-2.487,16.446-10.565,18.69L92.032,273.974z"/>
</g>
<circle style="fill:#D46366;" cx="257.809" cy="212.19" r="42.933"/>
<path style="fill:#4C1B27;" d="M257.806,270.311c-32.045,0-58.117-26.071-58.117-58.116s26.071-58.116,58.117-58.116
	s58.116,26.071,58.116,58.116S289.851,270.311,257.806,270.311z M257.806,184.44c-15.304,0-27.755,12.45-27.755,27.753
	s12.45,27.753,27.755,27.753c15.303,0,27.753-12.45,27.753-27.753S273.109,184.44,257.806,184.44z"/>
<path style="fill:#D46366;" d="M488.847,162.724l-51.799,14.384c-5.79,1.608-11.787-1.782-13.396-7.572L389.567,46.788
	c-1.608-5.79,1.782-11.787,7.572-13.396l51.799-14.384c5.79-1.608,11.787,1.782,13.396,7.572l34.085,122.747
	C498.028,155.118,494.637,161.116,488.847,162.724z"/>
<path style="fill:#4C1B27;" d="M434.13,192.688c-11.659,0-21.983-7.85-25.105-19.091L374.938,50.849
	c-3.842-13.848,4.293-28.24,18.139-32.086l51.799-14.384c2.279-0.633,4.626-0.953,6.98-0.953c11.661,0,21.983,7.85,25.105,19.091
	l34.087,122.747c3.842,13.848-4.295,28.24-18.139,32.084l-51.799,14.384C438.833,192.368,436.485,192.688,434.13,192.688z
	 M405.345,46.869L437.13,161.33l43.511-12.083l-31.785-114.46L405.345,46.869z"/>
</svg>